<?xml version="1.0" encoding="UTF-8"?>
<svg id="_Слой_1" data-name="Слой 1" xmlns="http://www.w3.org/2000/svg" viewBox="0 0 1021.52 1188.14">
  <defs>
    <style>
      .cls-1 {
        fill: #fff;
      }
    </style>
  </defs>
  <g>
    <g>
      <polygon class="cls-1" points="1021.52 907.82 1021.52 583.3 901.61 649.11 901.61 836.84 510.76 1051.35 119.91 836.84 119.91 649.11 0 583.3 0 907.82 510.76 1188.14 1021.52 907.82"/>
      <polygon class="cls-1" points="1021.52 496.03 1021.52 0 0 0 0 496.03 119.91 561.85 119.91 119.91 901.61 119.91 901.61 561.85 1021.52 496.03"/>
    </g>
    <g>
      <polygon class="cls-1" points="560.44 272.81 435.51 378.77 462.28 272.81 288.22 272.81 226.19 486.39 300.94 486.39 225.66 733.73 768.61 272.81 560.44 272.81"/>
      <polygon class="cls-1" points="823.66 682.47 627.22 458.85 489.68 574.49 574.83 682.47 823.66 682.47"/>
    </g>
  </g>
  <g>
    <path class="cls-1" d="M415.31,840.8h29.6v24.16h-65.83c0-5.63.68-10.81,2.05-15.52,1.37-4.71,3.12-8.59,5.26-11.65,2.13-3.06,4.52-5.83,7.18-8.33,2.66-2.49,5.29-4.61,7.91-6.34,2.61-1.73,4.99-3.34,7.12-4.83,2.14-1.49,3.89-3.02,5.26-4.59,1.37-1.57,2.05-3.2,2.05-4.89,0-1.85-.58-3.33-1.75-4.41-1.17-1.09-2.8-1.63-4.89-1.63s-4.35,1-6.52,3.02c-.56.56-1.41,1.57-2.54,3.02l-22.35-10.27c2.01-3.94,4.59-7.37,7.73-10.26,7.33-6.85,16.43-10.26,27.3-10.26,9.67,0,17.52,2.7,23.56,8.09,6.04,5.39,9.05,11.95,9.05,19.69,0,3.86-.78,7.41-2.35,10.63-1.57,3.22-3.65,5.96-6.22,8.21-2.58,2.25-5.18,4.27-7.79,6.04-2.62,1.77-5.28,3.56-7.97,5.37-2.7,1.81-4.65,3.4-5.86,4.77Z"/>
    <path class="cls-1" d="M514.12,854.93c-7.41,8.29-16.39,12.44-26.94,12.44s-19.52-4.15-26.93-12.44c-7.41-8.29-11.11-19.04-11.11-32.25s3.7-23.95,11.11-32.25c7.41-8.29,16.38-12.44,26.93-12.44s19.52,4.15,26.94,12.44c7.4,8.3,11.11,19.05,11.11,32.25s-3.7,23.96-11.11,32.25ZM479.45,838.2c2.09,3.35,4.67,5.01,7.73,5.01s5.63-1.67,7.73-5.01c2.09-3.34,3.14-8.51,3.14-15.52s-1.05-12.17-3.14-15.52c-2.1-3.34-4.67-5.01-7.73-5.01s-5.63,1.67-7.73,5.01c-2.09,3.34-3.14,8.51-3.14,15.52s1.05,12.18,3.14,15.52Z"/>
    <path class="cls-1" d="M540.32,864.96v-56.77h-13.28v-16.31c5.24-.73,9.46-2.86,12.68-6.4,1.45-1.61,2.66-3.3,3.63-5.07h24.16v84.55h-27.18Z"/>
    <path class="cls-1" d="M610.37,840.8h29.6v24.16h-65.83c0-5.63.68-10.81,2.05-15.52,1.37-4.71,3.12-8.59,5.26-11.65,2.13-3.06,4.52-5.83,7.18-8.33,2.66-2.49,5.29-4.61,7.91-6.34,2.61-1.73,4.99-3.34,7.12-4.83,2.14-1.49,3.89-3.02,5.26-4.59,1.37-1.57,2.05-3.2,2.05-4.89,0-1.85-.58-3.33-1.75-4.41-1.17-1.09-2.8-1.63-4.89-1.63s-4.35,1-6.52,3.02c-.56.56-1.41,1.57-2.54,3.02l-22.35-10.27c2.01-3.94,4.59-7.37,7.73-10.26,7.33-6.85,16.43-10.26,27.3-10.26,9.67,0,17.52,2.7,23.56,8.09,6.04,5.39,9.05,11.95,9.05,19.69,0,3.86-.78,7.41-2.35,10.63-1.57,3.22-3.65,5.96-6.22,8.21-2.58,2.25-5.18,4.27-7.79,6.04-2.62,1.77-5.28,3.56-7.97,5.37-2.7,1.81-4.65,3.4-5.86,4.77Z"/>
  </g>
</svg>