<?xml version="1.0" encoding="UTF-8"?>
<svg id="_Слой_1" data-name="Слой 1" xmlns="http://www.w3.org/2000/svg" viewBox="0 0 1562.94 641.5">
  <defs>
    <style>
      .cls-1 {
        fill: #fff;
      }
    </style>
  </defs>
  <g>
    <g>
      <g>
        <polygon class="cls-1" points="551.54 490.15 551.54 314.94 486.8 350.47 486.8 451.83 275.77 567.65 64.74 451.83 64.74 350.47 0 314.94 0 490.15 275.77 641.5 551.54 490.15"/>
        <polygon class="cls-1" points="551.54 267.82 551.54 0 0 0 0 267.82 64.74 303.36 64.74 64.74 486.8 64.74 486.8 303.35 551.54 267.82"/>
      </g>
      <g>
        <polygon class="cls-1" points="302.6 147.3 235.14 204.51 249.6 147.3 155.62 147.3 122.12 262.61 162.49 262.61 121.84 396.16 414.99 147.3 302.6 147.3"/>
        <polygon class="cls-1" points="444.71 368.48 338.65 247.74 264.39 310.18 310.36 368.48 444.71 368.48"/>
      </g>
    </g>
    <g>
      <path class="cls-1" d="M224.24,453.97h15.98v13.04h-35.54c0-3.04.37-5.84,1.11-8.38.74-2.54,1.68-4.64,2.84-6.29,1.15-1.65,2.44-3.15,3.88-4.5,1.43-1.35,2.86-2.49,4.27-3.42,1.41-.93,2.7-1.8,3.85-2.61,1.15-.8,2.1-1.63,2.84-2.48.74-.85,1.11-1.73,1.11-2.64,0-1-.32-1.8-.95-2.38-.63-.59-1.51-.88-2.64-.88s-2.35.54-3.52,1.63c-.3.3-.76.85-1.37,1.63l-12.06-5.55c1.09-2.13,2.48-3.98,4.17-5.54,3.96-3.7,8.87-5.54,14.74-5.54,5.22,0,9.46,1.46,12.72,4.37,3.26,2.91,4.89,6.45,4.89,10.63,0,2.09-.42,4-1.27,5.74-.85,1.74-1.97,3.22-3.36,4.43-1.39,1.22-2.8,2.3-4.21,3.26-1.41.95-2.85,1.92-4.3,2.9-1.46.98-2.51,1.84-3.16,2.58Z"/>
      <path class="cls-1" d="M277.58,461.6c-4,4.48-8.85,6.72-14.54,6.72s-10.54-2.24-14.54-6.72c-4-4.48-6-10.28-6-17.41s2-12.93,6-17.41c4-4.48,8.85-6.72,14.54-6.72s10.54,2.24,14.54,6.72c4,4.48,6,10.28,6,17.41s-2,12.94-6,17.41ZM258.87,452.57c1.13,1.81,2.52,2.71,4.17,2.71s3.04-.9,4.18-2.71c1.13-1.8,1.69-4.6,1.69-8.38s-.57-6.57-1.69-8.38c-1.13-1.8-2.52-2.71-4.18-2.71s-3.04.9-4.17,2.71c-1.13,1.8-1.7,4.6-1.7,8.38s.57,6.58,1.7,8.38Z"/>
      <path class="cls-1" d="M291.73,467.01v-30.65h-7.17v-8.8c2.83-.39,5.11-1.54,6.85-3.46.78-.87,1.43-1.78,1.96-2.74h13.04v45.65h-14.67Z"/>
      <path class="cls-1" d="M329.55,453.97h15.98v13.04h-35.54c0-3.04.37-5.84,1.11-8.38.74-2.54,1.68-4.64,2.84-6.29,1.15-1.65,2.44-3.15,3.88-4.5,1.43-1.35,2.86-2.49,4.27-3.42,1.41-.93,2.7-1.8,3.85-2.61,1.15-.8,2.1-1.63,2.84-2.48.74-.85,1.11-1.73,1.11-2.64,0-1-.32-1.8-.95-2.38-.63-.59-1.51-.88-2.64-.88s-2.35.54-3.52,1.63c-.3.3-.76.85-1.37,1.63l-12.06-5.55c1.09-2.13,2.48-3.98,4.17-5.54,3.96-3.7,8.87-5.54,14.74-5.54,5.22,0,9.46,1.46,12.72,4.37,3.26,2.91,4.89,6.45,4.89,10.63,0,2.09-.42,4-1.27,5.74-.85,1.74-1.97,3.22-3.36,4.43-1.39,1.22-2.8,2.3-4.21,3.26-1.41.95-2.85,1.92-4.3,2.9-1.46.98-2.51,1.84-3.16,2.58Z"/>
    </g>
  </g>
  <g>
    <g>
      <polygon class="cls-1" points="714.18 96.33 727.32 82.24 763.18 127.69 804.31 127.69 750.52 57.87 801.63 2.5 762.64 2.5 714.18 54.51 714.18 2.5 679.12 2.5 679.12 127.69 714.18 127.69 714.18 96.33"/>
      <path class="cls-1" d="M869.59,130.2c18.48,0,32.91-5.07,43.28-15.2,10.37-10.13,15.56-24.5,15.56-43.1V2.5h-34.87v68.32c0,10.73-2.09,18.42-6.26,23.07-4.18,4.65-9.96,6.98-17.35,6.98s-13.21-2.33-17.44-6.98c-4.23-4.65-6.35-12.34-6.35-23.07V2.5h-35.41v69.39c0,18.6,5.19,32.97,15.56,43.1,10.37,10.14,24.8,15.2,43.28,15.2Z"/>
      <polygon class="cls-1" points="1047.53 99.62 987.8 99.62 987.8 2.5 952.39 2.5 952.39 127.69 1047.53 127.69 1047.53 99.62"/>
      <path class="cls-1" d="M1117.1,101.31c-2.98.9-6.92,1.34-11.8,1.34-7.27,0-14.58-1.16-21.91-3.49-7.33-2.33-13.8-5.28-19.4-8.85l-11.62,26.11c5.96,4.05,13.68,7.36,23.16,9.93,9.48,2.56,19.34,3.84,29.6,3.84,12.4,0,22.68-1.85,30.85-5.54,8.17-3.69,14.31-8.61,18.42-14.75,4.11-6.14,6.17-12.85,6.17-20.12,0-6.56-1.28-12.01-3.84-16.36-2.57-4.35-5.93-7.87-10.1-10.55-4.18-2.68-8.79-4.83-13.86-6.44-5.07-1.61-10.13-2.95-15.2-4.02-5.07-1.07-9.72-2.12-13.95-3.13-4.23-1.01-7.63-2.33-10.19-3.93-2.57-1.61-3.85-3.78-3.85-6.53,0-2.15.65-4.05,1.97-5.72,1.31-1.67,3.45-3.01,6.44-4.02,2.98-1.01,6.91-1.52,11.8-1.52,5.48,0,11.15.8,16.99,2.41,5.84,1.61,11.74,4.02,17.7,7.24l10.91-26.29c-6.2-3.58-13.26-6.29-21.19-8.14-7.93-1.85-16.01-2.77-24.23-2.77-12.28,0-22.53,1.85-30.76,5.54-8.23,3.7-14.4,8.58-18.51,14.67-4.11,6.08-6.17,12.88-6.17,20.39,0,6.68,1.31,12.19,3.93,16.54,2.62,4.35,6.02,7.87,10.19,10.55,4.17,2.68,8.79,4.86,13.86,6.53,5.07,1.67,10.13,3.04,15.2,4.11,5.07,1.07,9.68,2.15,13.86,3.22,4.17,1.07,7.57,2.45,10.19,4.11,2.62,1.67,3.94,3.93,3.94,6.8,0,2.03-.69,3.79-2.06,5.27-1.37,1.49-3.55,2.68-6.53,3.58Z"/>
      <path class="cls-1" d="M1207.69,103.37h53.09l9.76,24.32h36.84l-55.44-125.19h-34.87l-55.26,125.19h36.12l9.76-24.32ZM1218.17,77.26l16.06-40.03,16.06,40.03h-32.13Z"/>
      <path class="cls-1" d="M1352.81,94.43h19.33l22.7,33.26h37.91l-27.05-39.42c7.57-3.6,13.5-8.6,17.75-15.04,4.53-6.86,6.8-14.99,6.8-24.41s-2.27-17.79-6.8-24.77c-4.53-6.97-10.94-12.31-19.22-16.01-8.29-3.69-18.15-5.54-29.6-5.54h-57.23v125.19h35.41v-33.26ZM1389.02,35.23c3.64,3.22,5.45,7.75,5.45,13.59s-1.82,10.19-5.45,13.41c-3.64,3.22-9.15,4.83-16.54,4.83h-19.67V30.4h19.67c7.39,0,12.91,1.61,16.54,4.83Z"/>
      <polygon class="cls-1" points="1562.94 2.5 1528.61 2.5 1498.85 52.18 1469.23 2.5 1431.85 2.5 1479.6 82.29 1479.6 127.69 1515.01 127.69 1515.01 82.85 1562.94 2.5"/>
    </g>
    <polygon class="cls-1" points="767.47 304.05 821.12 178.86 786.07 178.86 751.33 260.46 717.4 178.86 679.12 178.86 732.6 304.05 767.47 304.05"/>
    <polygon class="cls-1" points="863.51 253.79 919.12 253.79 919.12 227.33 863.51 227.33 863.51 206.22 926.64 206.22 926.64 178.86 828.45 178.86 828.45 304.05 928.96 304.05 928.96 276.69 863.51 276.69 863.51 253.79"/>
    <polygon class="cls-1" points="983.33 237.33 1038.59 304.05 1067.74 304.05 1067.74 178.86 1033.05 178.86 1033.05 245.57 977.78 178.86 948.63 178.86 948.63 304.05 983.33 304.05 983.33 237.33"/>
    <polygon class="cls-1" points="1080.97 206.94 1119.42 206.94 1119.42 304.05 1154.84 304.05 1154.84 206.94 1193.11 206.94 1193.11 178.86 1080.97 178.86 1080.97 206.94"/>
    <g>
      <path class="cls-1" d="M773.37,415.57c-4.17-2.68-8.79-4.83-13.86-6.44-5.07-1.61-10.14-2.95-15.2-4.02-5.07-1.07-9.72-2.12-13.95-3.13-4.23-1.01-7.63-2.33-10.19-3.93-2.56-1.61-3.84-3.78-3.84-6.53,0-2.15.65-4.05,1.97-5.72,1.31-1.67,3.46-3.01,6.44-4.02,2.98-1.01,6.91-1.52,11.8-1.52,5.48,0,11.15.8,16.99,2.41,5.84,1.61,11.74,4.02,17.7,7.24l10.91-26.29c-6.2-3.58-13.27-6.29-21.19-8.14-7.93-1.85-16.01-2.77-24.23-2.77-12.28,0-22.53,1.85-30.76,5.54-8.23,3.7-14.4,8.58-18.51,14.67-4.11,6.08-6.17,12.88-6.17,20.39,0,6.68,1.31,12.19,3.93,16.54,2.62,4.35,6.02,7.87,10.19,10.55,4.17,2.68,8.79,4.86,13.86,6.53,5.07,1.67,10.13,3.04,15.2,4.11,5.07,1.07,9.68,2.15,13.86,3.22,4.17,1.07,7.57,2.45,10.19,4.11,2.62,1.67,3.93,3.93,3.93,6.8,0,2.03-.69,3.79-2.06,5.27-1.37,1.49-3.55,2.68-6.53,3.58-2.98.9-6.92,1.34-11.8,1.34-7.27,0-14.58-1.16-21.91-3.49-7.33-2.33-13.8-5.28-19.4-8.85l-11.62,26.11c5.96,4.05,13.68,7.36,23.16,9.93,9.48,2.56,19.34,3.84,29.6,3.84,12.4,0,22.68-1.85,30.85-5.54,8.16-3.69,14.31-8.61,18.42-14.75,4.11-6.14,6.17-12.85,6.17-20.12,0-6.56-1.28-12.01-3.85-16.36-2.56-4.35-5.93-7.87-10.1-10.55Z"/>
      <polygon class="cls-1" points="838.65 430.15 894.27 430.15 894.27 403.68 838.65 403.68 838.65 382.58 901.78 382.58 901.78 355.22 803.59 355.22 803.59 480.4 904.1 480.4 904.1 453.04 838.65 453.04 838.65 430.15"/>
      <path class="cls-1" d="M1029.83,425.95c4.53-6.86,6.8-14.99,6.8-24.41s-2.27-17.79-6.8-24.77c-4.53-6.97-10.94-12.31-19.22-16.01-8.29-3.69-18.15-5.54-29.6-5.54h-57.23v125.19h35.41v-33.26h19.33l22.7,33.26h37.91l-27.05-39.42c7.57-3.6,13.5-8.6,17.75-15.04ZM995.4,387.94c3.64,3.22,5.45,7.75,5.45,13.59s-1.82,10.19-5.45,13.41c-3.64,3.22-9.15,4.83-16.54,4.83h-19.67v-36.66h19.67c7.39,0,12.9,1.61,16.54,4.83Z"/>
      <polygon class="cls-1" points="1113.3 436.82 1079.36 355.22 1041.09 355.22 1094.57 480.4 1129.44 480.4 1183.09 355.22 1148.04 355.22 1113.3 436.82"/>
      <rect class="cls-1" x="1190.42" y="355.22" width="35.41" height="125.19"/>
      <path class="cls-1" d="M1290.12,391.79c3.04-3.16,6.7-5.57,11-7.24,4.29-1.67,9-2.5,14.13-2.5,5.96,0,11.36,1.25,16.18,3.76,4.83,2.5,9.27,6.14,13.32,10.91l22.53-20.39c-6.08-7.63-13.68-13.47-22.8-17.53-9.12-4.05-19.47-6.08-31.03-6.08-9.9,0-19.04,1.58-27.45,4.74-8.41,3.16-15.68,7.66-21.82,13.5-6.14,5.84-10.94,12.73-14.4,20.65-3.46,7.93-5.19,16.66-5.19,26.2s1.73,18.27,5.19,26.2c3.46,7.93,8.25,14.82,14.4,20.66,6.14,5.84,13.41,10.34,21.82,13.5,8.41,3.16,17.55,4.74,27.45,4.74,11.56,0,21.91-2.06,31.03-6.17,9.12-4.11,16.72-9.93,22.8-17.44l-22.53-20.39c-4.05,4.77-8.5,8.4-13.32,10.91-4.83,2.51-10.22,3.76-16.18,3.76-5.13,0-9.84-.83-14.13-2.5-4.29-1.67-7.96-4.08-11-7.24-3.04-3.16-5.43-6.95-7.15-11.36-1.73-4.41-2.59-9.3-2.59-14.66s.86-10.25,2.59-14.67c1.73-4.41,4.11-8.2,7.15-11.36Z"/>
      <polygon class="cls-1" points="1418.08 430.15 1473.7 430.15 1473.7 403.68 1418.08 403.68 1418.08 382.58 1481.21 382.58 1481.21 355.22 1383.03 355.22 1383.03 480.4 1483.54 480.4 1483.54 453.04 1418.08 453.04 1418.08 430.15"/>
    </g>
  </g>
</svg>